<svg width="52" height="50" viewBox="0 0 52 50" fill="none" xmlns="http://www.w3.org/2000/svg">
<rect x="0.5" y="0.5" width="51" height="49" rx="24.5" stroke="#035397"/>
<path d="M23.75 16H28.25C28.25 15.4033 28.0129 14.831 27.591 14.409C27.169 13.9871 26.5967 13.75 26 13.75C25.4033 13.75 24.831 13.9871 24.409 14.409C23.9871 14.831 23.75 15.4033 23.75 16V16ZM22.25 16C22.25 15.0054 22.6451 14.0516 23.3483 13.3483C24.0516 12.6451 25.0054 12.25 26 12.25C26.9946 12.25 27.9484 12.6451 28.6517 13.3483C29.3549 14.0516 29.75 15.0054 29.75 16H37.25C37.4489 16 37.6397 16.079 37.7803 16.2197C37.921 16.3603 38 16.5511 38 16.75C38 16.9489 37.921 17.1397 37.7803 17.2803C37.6397 17.421 37.4489 17.5 37.25 17.5H35.669L33.878 33.016C33.7514 34.1128 33.226 35.1248 32.4018 35.8594C31.5776 36.594 30.5121 36.9999 29.408 37H22.592C21.4879 36.9999 20.4224 36.594 19.5982 35.8594C18.774 35.1248 18.2486 34.1128 18.122 33.016L16.331 17.5H14.75C14.5511 17.5 14.3603 17.421 14.2197 17.2803C14.079 17.1397 14 16.9489 14 16.75C14 16.5511 14.079 16.3603 14.2197 16.2197C14.3603 16.079 14.5511 16 14.75 16H22.25ZM19.6115 32.845C19.6961 33.5761 20.0466 34.2506 20.5961 34.7401C21.1457 35.2297 21.856 35.5001 22.592 35.5H29.408C30.144 35.5001 30.8543 35.2297 31.4039 34.7401C31.9534 34.2506 32.3039 33.5761 32.3885 32.845L34.1585 17.5H17.8415L19.6115 32.845ZM23.75 21.25C23.9489 21.25 24.1397 21.329 24.2803 21.4697C24.421 21.6103 24.5 21.8011 24.5 22V31C24.5 31.1989 24.421 31.3897 24.2803 31.5303C24.1397 31.671 23.9489 31.75 23.75 31.75C23.5511 31.75 23.3603 31.671 23.2197 31.5303C23.079 31.3897 23 31.1989 23 31V22C23 21.8011 23.079 21.6103 23.2197 21.4697C23.3603 21.329 23.5511 21.25 23.75 21.25ZM29 22C29 21.8011 28.921 21.6103 28.7803 21.4697C28.6397 21.329 28.4489 21.25 28.25 21.25C28.0511 21.25 27.8603 21.329 27.7197 21.4697C27.579 21.6103 27.5 21.8011 27.5 22V31C27.5 31.1989 27.579 31.3897 27.7197 31.5303C27.8603 31.671 28.0511 31.75 28.25 31.75C28.4489 31.75 28.6397 31.671 28.7803 31.5303C28.921 31.3897 29 31.1989 29 31V22Z" fill="#035397"/>
</svg>
