<svg width="39" height="39" viewBox="0 0 39 39" fill="none" xmlns="http://www.w3.org/2000/svg">
<path d="M34.643 32.5444L24.7521 22.6535C26.2869 20.6692 27.1172 18.2432 27.1172 15.6914C27.1172 12.6369 25.9251 9.77285 23.7694 7.61338C21.6138 5.45391 18.7421 4.26562 15.6914 4.26562C12.6407 4.26562 9.76904 5.45771 7.61338 7.61338C5.45391 9.76904 4.26562 12.6369 4.26562 15.6914C4.26562 18.7421 5.45771 21.6138 7.61338 23.7694C9.76904 25.9289 12.6369 27.1172 15.6914 27.1172C18.2432 27.1172 20.6654 26.2869 22.6497 24.7559L32.5406 34.643C32.5696 34.672 32.6041 34.695 32.642 34.7107C32.6799 34.7264 32.7205 34.7345 32.7615 34.7345C32.8026 34.7345 32.8432 34.7264 32.8811 34.7107C32.919 34.695 32.9534 34.672 32.9824 34.643L34.643 32.9862C34.672 32.9572 34.695 32.9228 34.7107 32.8849C34.7264 32.847 34.7345 32.8064 34.7345 32.7653C34.7345 32.7243 34.7264 32.6837 34.7107 32.6458C34.695 32.6079 34.672 32.5734 34.643 32.5444V32.5444ZM21.7242 21.7242C20.1094 23.3353 17.9689 24.2227 15.6914 24.2227C13.4139 24.2227 11.2734 23.3353 9.65859 21.7242C8.04756 20.1094 7.16016 17.9689 7.16016 15.6914C7.16016 13.4139 8.04756 11.2696 9.65859 9.65859C11.2734 8.04756 13.4139 7.16016 15.6914 7.16016C17.9689 7.16016 20.1132 8.04375 21.7242 9.65859C23.3353 11.2734 24.2227 13.4139 24.2227 15.6914C24.2227 17.9689 23.3353 20.1132 21.7242 21.7242Z" fill="#035397"/>
</svg>
