<svg width="52" height="50" viewBox="0 0 52 50" fill="none" xmlns="http://www.w3.org/2000/svg">
<rect x="0.5" y="0.5" width="51" height="49" rx="24.5" stroke="#035397"/>
<path d="M17 15H20V18.8355C21.6219 17.5627 23.5826 16.7956 25.6376 16.6298C27.6926 16.464 29.7509 16.9068 31.5559 17.903C33.3609 18.8992 34.8327 20.4048 35.7877 22.2319C36.7427 24.0591 37.1387 26.1269 36.9262 28.1776C36.7138 30.2283 35.9024 32.1711 34.5931 33.7637C33.2839 35.3563 31.5348 36.5282 29.5639 37.1333C27.593 37.7384 25.4876 37.7499 23.5103 37.1664C21.5329 36.5829 19.7711 35.4302 18.4445 33.852L20.8745 32.076C21.8375 33.1602 23.0941 33.9419 24.4922 34.3266C25.8903 34.7113 27.37 34.6825 28.752 34.2436C30.1341 33.8047 31.3593 32.9745 32.2792 31.8537C33.1992 30.7328 33.7745 29.3693 33.9356 27.9282C34.0966 26.487 33.8364 25.0302 33.1864 23.7339C32.5365 22.4376 31.5248 21.3576 30.2737 20.6244C29.0225 19.8913 27.5857 19.5367 26.1372 19.6033C24.6887 19.67 23.2905 20.1551 22.112 21H26V24H17V15Z" fill="#035397"/>
</svg>
